#tb 0: 1/8000
#media_type 0: audio
#codec_id 0: pcm_s16le
#sample_rate 0: 8000
#channel_layout_name 0: mono
0,          0,          0,       64,      128, 0x3ef33f6f
0,         64,         64,      160,      320, 0x2052a4e7
0,        224,        224,      160,      320, 0xe9aeafca
0,        384,        384,      160,      320, 0xde83b450
0,        544,        544,      160,      320, 0x06a6a80e
0,        704,        704,      160,      320, 0xf6aeb1e2
0,        864,        864,      160,      320, 0x2623b40c
0,       1024,       1024,      160,      320, 0x8ec69f25
0,       1184,       1184,      160,      320, 0xddaaac88
0,       1344,       1344,      160,      320, 0x9e60b713
0,       1504,       1504,      160,      320, 0xb738ab30
0,       1664,       1664,      160,      320, 0xdb4bbb92
0,       1824,       1824,      160,      320, 0x0370ae8b
0,       1984,       1984,      160,      320, 0xb611a3fb
0,       2144,       2144,      160,      320, 0x07ee8e3b
0,       2304,       2304,      160,      320, 0xdb1ec628
0,       2464,       2464,      160,      320, 0xd5f1bda2
0,       2624,       2624,      160,      320, 0xcabb9a9c
0,       2784,       2784,      160,      320, 0x16c8ad61
0,       2944,       2944,      160,      320, 0xf76fc25e
0,       3104,       3104,      160,      320, 0x7118a10d
0,       3264,       3264,      160,      320, 0x29f9a0db
0,       3424,       3424,      160,      320, 0x41f2a4ef
0,       3584,       3584,      160,      320, 0x36dfb231
0,       3744,       3744,      160,      320, 0xc5399eda
0,       3904,       3904,      160,      320, 0x17d4b9e0
0,       4064,       4064,      160,      320, 0x2b5797ac
0,       4224,       4224,      160,      320, 0x0128c5e7
0,       4384,       4384,      160,      320, 0xf4f38037
0,       4544,       4544,      160,      320, 0x77d6b5f2
0,       4704,       4704,      160,      320, 0xd94a93e0
0,       4864,       4864,      160,      320, 0x968daae3
0,       5024,       5024,      160,      320, 0xda5ba0ec
0,       5184,       5184,      160,      320, 0x316da1ec
0,       5344,       5344,      160,      320, 0x3a35b2d2
0,       5504,       5504,      160,      320, 0xca0b988f
0,       5664,       5664,      160,      320, 0x1295b0b1
0,       5824,       5824,      160,      320, 0xe121ae72
0,       5984,       5984,      160,      320, 0x7da7ad43
0,       6144,       6144,      160,      320, 0x96a49cfe
0,       6304,       6304,      160,      320, 0x70c2b1de
0,       6464,       6464,      160,      320, 0x668d88c0
0,       6624,       6624,      160,      320, 0x5460b5a8
0,       6784,       6784,      160,      320, 0x6ac78eab
0,       6944,       6944,      160,      320, 0x0d8dab87
0,       7104,       7104,      160,      320, 0xe2be94af
0,       7264,       7264,      160,      320, 0x3487acdc
0,       7424,       7424,      160,      320, 0x5048955a
0,       7584,       7584,      160,      320, 0x2ef4ae0d
0,       7744,       7744,      160,      320, 0xc765b773
0,       7904,       7904,      160,      320, 0xad96a486
0,       8064,       8064,      160,      320, 0xb9fdbf1f
0,       8224,       8224,      160,      320, 0xf26c9ecf
0,       8384,       8384,      160,      320, 0xbcadb535
0,       8544,       8544,      160,      320, 0xa8c897bc
0,       8704,       8704,      160,      320, 0xaa58b520
0,       8864,       8864,      160,      320, 0xcb48a716
0,       9024,       9024,      160,      320, 0x4d5da564
0,       9184,       9184,      160,      320, 0x9809ae28
0,       9344,       9344,      160,      320, 0x5baeb1e4
0,       9504,       9504,      160,      320, 0x6a719b63
0,       9664,       9664,      160,      320, 0xc27d92f0
0,       9824,       9824,      160,      320, 0x0e9b9fe9
0,       9984,       9984,      160,      320, 0xbf9d9bf7
0,      10144,      10144,      160,      320, 0xf35aa64d
0,      10304,      10304,      160,      320, 0x26449ce8
0,      10464,      10464,      160,      320, 0x58f4a997
0,      10624,      10624,      160,      320, 0x155da289
0,      10784,      10784,      160,      320, 0x63b19a5c
0,      10944,      10944,      160,      320, 0xe01aad38
0,      11104,      11104,      160,      320, 0x4e0f9c43
0,      11264,      11264,      160,      320, 0x9447a284
0,      11424,      11424,      160,      320, 0xdb36a433
0,      11584,      11584,      160,      320, 0x799a9b2c
0,      11744,      11744,      160,      320, 0x1526a162
0,      11904,      11904,      160,      320, 0x0a4ea140
0,      12064,      12064,      160,      320, 0xb08f9ed7
0,      12224,      12224,      160,      320, 0x221bab76
0,      12384,      12384,      160,      320, 0x4befacf0
0,      12544,      12544,      160,      320, 0xac489509
0,      12704,      12704,      160,      320, 0x57a1a5b4
0,      12864,      12864,      160,      320, 0x81e8ab97
0,      13024,      13024,      160,      320, 0xc6ada4d6
0,      13184,      13184,      160,      320, 0x12489975
0,      13344,      13344,      160,      320, 0x1da59ba9
0,      13504,      13504,      160,      320, 0xf225ac62
0,      13664,      13664,      160,      320, 0x8c8e9eab
0,      13824,      13824,      160,      320, 0x10599dec
0,      13984,      13984,      160,      320, 0x06c39fa5
0,      14144,      14144,      160,      320, 0xb0efa3c4
0,      14304,      14304,      160,      320, 0x72caadab
0,      14464,      14464,      160,      320, 0xe4619ff0
0,      14624,      14624,      160,      320, 0x49bca017
0,      14784,      14784,      160,      320, 0x413f9fbe
0,      14944,      14944,      160,      320, 0x6eaed0ee
0,      15104,      15104,      160,      320, 0x27e4b1eb
0,      15264,      15264,      160,      320, 0x8c42a30f
0,      15424,      15424,      160,      320, 0x0afaa0f4
0,      15584,      15584,      160,      320, 0x0f74b76b
0,      15744,      15744,      160,      320, 0xa9a2b9d5
0,      15904,      15904,      160,      320, 0xde2a8712
0,      16064,      16064,      160,      320, 0xcfc8b3a2
0,      16224,      16224,      160,      320, 0x768cadce
0,      16384,      16384,      160,      320, 0x3a8a97f1
0,      16544,      16544,      160,      320, 0x502fa59b
0,      16704,      16704,      160,      320, 0x4c3e9b0f
0,      16864,      16864,      160,      320, 0x1cd2b111
0,      17024,      17024,      160,      320, 0xa845a5a3
0,      17184,      17184,      160,      320, 0xa6b8b982
0,      17344,      17344,      160,      320, 0x4d5caab9
0,      17504,      17504,      160,      320, 0x7993b604
0,      17664,      17664,      160,      320, 0x8d19b37b
0,      17824,      17824,      160,      320, 0xbe48adb6
0,      17984,      17984,      160,      320, 0x7d68ab8e
0,      18144,      18144,      160,      320, 0xbfffb0e2
0,      18304,      18304,      160,      320, 0x90b5b7e3
0,      18464,      18464,      160,      320, 0x9fa1b016
0,      18624,      18624,      160,      320, 0x70abafc9
0,      18784,      18784,      160,      320, 0x82cfad9c
0,      18944,      18944,      160,      320, 0x05f6aa2c
0,      19104,      19104,      160,      320, 0x511cbb5b
0,      19264,      19264,      160,      320, 0xd27caaa6
0,      19424,      19424,      160,      320, 0x781ca481
0,      19584,      19584,      160,      320, 0x12e9ad1a
0,      19744,      19744,      160,      320, 0xe46b989d
0,      19904,      19904,      160,      320, 0x76dbb0a7
0,      20064,      20064,      160,      320, 0x10eba486
0,      20224,      20224,      160,      320, 0x2269a7c8
0,      20384,      20384,      160,      320, 0x084a9c7e
0,      20544,      20544,      160,      320, 0x84eda891
0,      20704,      20704,      160,      320, 0x2ef9a639
0,      20864,      20864,      160,      320, 0x8bb2a0dd
0,      21024,      21024,      160,      320, 0x47e5a169
0,      21184,      21184,      160,      320, 0x98faae42
0,      21344,      21344,      160,      320, 0x81d2aba4
0,      21504,      21504,      160,      320, 0x5af8bb33
0,      21664,      21664,      160,      320, 0x331e8d9f
0,      21824,      21824,      160,      320, 0xd9b0c09a
0,      21984,      21984,      160,      320, 0xbaf9bfcf
0,      22144,      22144,      160,      320, 0x54e89ab5
0,      22304,      22304,      160,      320, 0x1d62c1d2
0,      22464,      22464,      160,      320, 0xead6b436
0,      22624,      22624,      160,      320, 0x465f98bc
0,      22784,      22784,      160,      320, 0xe707a346
0,      22944,      22944,      160,      320, 0xf66cb1c2
0,      23104,      23104,      160,      320, 0xcfc89ae6
0,      23264,      23264,      160,      320, 0x0b10b796
0,      23424,      23424,      160,      320, 0xb29caf2c
0,      23584,      23584,      160,      320, 0x0284a9d1
0,      23744,      23744,      160,      320, 0xb966b5fc
0,      23904,      23904,      160,      320, 0x2defa630
0,      24064,      24064,      160,      320, 0xcdcd8ef3
0,      24224,      24224,      160,      320, 0xa81bba2b
0,      24384,      24384,      160,      320, 0x6bc0aeb1
0,      24544,      24544,      160,      320, 0x38d8ac82
0,      24704,      24704,      160,      320, 0xeb66a865
0,      24864,      24864,      160,      320, 0x4fff9cd9
0,      25024,      25024,      160,      320, 0x6819a19b
0,      25184,      25184,      160,      320, 0xfd7c93ce
0,      25344,      25344,      160,      320, 0xa7419f63
0,      25504,      25504,      160,      320, 0x572caacb
0,      25664,      25664,      160,      320, 0x918fb1de
0,      25824,      25824,      160,      320, 0x0088a675
0,      25984,      25984,      160,      320, 0x19229cf7
0,      26144,      26144,      160,      320, 0x827ea812
0,      26304,      26304,      160,      320, 0x6c258ef7
0,      26464,      26464,      160,      320, 0x6a89b8fe
0,      26624,      26624,      160,      320, 0x166c9ce0
0,      26784,      26784,      160,      320, 0x68b39db7
0,      26944,      26944,      160,      320, 0x3d5aa8ec
0,      27104,      27104,      160,      320, 0x25e09ff3
0,      27264,      27264,      160,      320, 0x759aa4ce
0,      27424,      27424,      160,      320, 0xe5aab0ea
0,      27584,      27584,      160,      320, 0xf0359e9a
0,      27744,      27744,      160,      320, 0x51199fff
0,      27904,      27904,      160,      320, 0xb04aa236
0,      28064,      28064,      160,      320, 0xe09da0e3
0,      28224,      28224,      160,      320, 0x144f98a9
0,      28384,      28384,      160,      320, 0x0b4e9f8d
0,      28544,      28544,      160,      320, 0xbb69a090
0,      28704,      28704,      160,      320, 0xec6e9b5b
0,      28864,      28864,      160,      320, 0x4f86a477
0,      29024,      29024,      160,      320, 0x4a179d04
0,      29184,      29184,      160,      320, 0x9682a375
0,      29344,      29344,      160,      320, 0x3c6ba55e
0,      29504,      29504,      160,      320, 0x50c0ab50
0,      29664,      29664,      160,      320, 0xe58ea907
0,      29824,      29824,      160,      320, 0xc5eaa021
0,      29984,      29984,      160,      320, 0x38859f01
0,      30144,      30144,      160,      320, 0x73f8a540
0,      30304,      30304,      160,      320, 0x395da234
0,      30464,      30464,      160,      320, 0x7f50b144
0,      30624,      30624,      160,      320, 0x45568ceb
0,      30784,      30784,      160,      320, 0xd0508dec
0,      30944,      30944,      160,      320, 0x60aba7e4
0,      31104,      31104,      160,      320, 0x4b24b15f
0,      31264,      31264,      160,      320, 0xbfc9afd6
0,      31424,      31424,      160,      320, 0xf0f2ad49
0,      31584,      31584,      160,      320, 0xeea0a426
0,      31744,      31744,      160,      320, 0xff07a7c9
0,      31904,      31904,      160,      320, 0xce1fc788
0,      32064,      32064,      160,      320, 0xc074ae9b
0,      32224,      32224,      160,      320, 0x51649696
0,      32384,      32384,      160,      320, 0x24399744
0,      32544,      32544,      160,      320, 0xfb0eb920
0,      32704,      32704,      160,      320, 0x3bf8af5c
0,      32864,      32864,      160,      320, 0xeab69ee0
0,      33024,      33024,      160,      320, 0x182696bb
0,      33184,      33184,      160,      320, 0x36e6af72
0,      33344,      33344,      160,      320, 0x48cc9ecc
0,      33504,      33504,      160,      320, 0xfb3ca7b8
0,      33664,      33664,      160,      320, 0xe01aa4b4
0,      33824,      33824,      160,      320, 0x5c6dac8c
0,      33984,      33984,      160,      320, 0x072fbd93
0,      34144,      34144,      160,      320, 0xc8899ccc
0,      34304,      34304,      160,      320, 0xdcc990ac
0,      34464,      34464,      160,      320, 0x28e0a9d0
0,      34624,      34624,      160,      320, 0x0cdbaa11
0,      34784,      34784,      160,      320, 0x8f4ca093
0,      34944,      34944,      160,      320, 0x7ee79ea9
0,      35104,      35104,      160,      320, 0xa762b695
0,      35264,      35264,      160,      320, 0x9af0b5da
0,      35424,      35424,      160,      320, 0x1f2cb0e7
0,      35584,      35584,      160,      320, 0x6029b8bb
0,      35744,      35744,      160,      320, 0xf2f7acec
0,      35904,      35904,      160,      320, 0xb3e5b5be
0,      36064,      36064,      160,      320, 0x266ba8a6
0,      36224,      36224,      160,      320, 0x4ff59296
0,      36384,      36384,      160,      320, 0x11d1b9ac
0,      36544,      36544,      160,      320, 0x749197f7
0,      36704,      36704,      160,      320, 0x8192b517
0,      36864,      36864,      160,      320, 0xde129dbe
0,      37024,      37024,      160,      320, 0x85e4a096
0,      37184,      37184,      160,      320, 0xdebf9182
0,      37344,      37344,      160,      320, 0x7a4ba0bf
0,      37504,      37504,      160,      320, 0x55fe9fcd
0,      37664,      37664,      160,      320, 0xd242adec
0,      37824,      37824,      160,      320, 0xeaf5b159
0,      37984,      37984,      160,      320, 0xfcb1a571
0,      38144,      38144,      160,      320, 0x62fabda0
0,      38304,      38304,      160,      320, 0x45a9abcc
0,      38464,      38464,      160,      320, 0x07af974b
0,      38624,      38624,      160,      320, 0xc2a0b4fd
0,      38784,      38784,      160,      320, 0xc30abccd
0,      38944,      38944,      160,      320, 0xd33ca61c
0,      39104,      39104,      160,      320, 0x3c33d11a
0,      39264,      39264,      160,      320, 0x9c2ca0ac
0,      39424,      39424,      160,      320, 0xa5d69777
0,      39584,      39584,      160,      320, 0xb7d2c6b8
0,      39744,      39744,      160,      320, 0x34bbaab9
0,      39904,      39904,      160,      320, 0x3e7baccb
0,      40064,      40064,      160,      320, 0x92c6b7e6
0,      40224,      40224,      160,      320, 0xc810a18a
0,      40384,      40384,      160,      320, 0x06a09f56
0,      40544,      40544,      160,      320, 0x8804a504
0,      40704,      40704,      160,      320, 0x783ba7d5
0,      40864,      40864,      160,      320, 0x24dcada6
0,      41024,      41024,      160,      320, 0x4af796be
0,      41184,      41184,      160,      320, 0x1454b19c
0,      41344,      41344,      160,      320, 0x0ad0a56e
0,      41504,      41504,      160,      320, 0x8944a44e
0,      41664,      41664,      160,      320, 0x31069ebd
0,      41824,      41824,      160,      320, 0x19cb9812
0,      41984,      41984,      160,      320, 0xac75abe2
0,      42144,      42144,      160,      320, 0x0162a200
0,      42304,      42304,      160,      320, 0xa2d7a4b2
0,      42464,      42464,      160,      320, 0x078ca611
0,      42624,      42624,      160,      320, 0x0ec39b40
0,      42784,      42784,      160,      320, 0xe8f794b2
0,      42944,      42944,      160,      320, 0xc2cfb258
0,      43104,      43104,      160,      320, 0xe4759061
0,      43264,      43264,      160,      320, 0xb1b6aea4
0,      43424,      43424,      160,      320, 0x9bfb96df
0,      43584,      43584,      160,      320, 0xcc61b5d3
0,      43744,      43744,      160,      320, 0xd14e8df9
0,      43904,      43904,      160,      320, 0xd9d5bbf5
0,      44064,      44064,      160,      320, 0x4d9fa9b0
0,      44224,      44224,      160,      320, 0xf606abfc
0,      44384,      44384,      160,      320, 0x720baa19
0,      44544,      44544,      160,      320, 0x7f7cac49
0,      44704,      44704,      160,      320, 0xceab9b54
0,      44864,      44864,      160,      320, 0x645fa70a
0,      45024,      45024,      160,      320, 0xa081a40f
0,      45184,      45184,      160,      320, 0x21d78f8c
0,      45344,      45344,      160,      320, 0xedf3abc6
0,      45504,      45504,      160,      320, 0x17679637
0,      45664,      45664,      160,      320, 0x1cb1ae04
0,      45824,      45824,      160,      320, 0x17cd9f62
0,      45984,      45984,      160,      320, 0xf4bca3ab
0,      46144,      46144,      160,      320, 0xb3bd9152
0,      46304,      46304,      160,      320, 0x4e1e9825
0,      46464,      46464,      160,      320, 0x037e9a56
0,      46624,      46624,      160,      320, 0xd7589fcc
0,      46784,      46784,      160,      320, 0x5f949e90
0,      46944,      46944,      160,      320, 0xe133a495
0,      47104,      47104,      160,      320, 0x7cb7a52c
0,      47264,      47264,      160,      320, 0xb8b29d95
0,      47424,      47424,      160,      320, 0x01bca472
0,      47584,      47584,      160,      320, 0xbcc69895
0,      47744,      47744,      160,      320, 0xabffa0ee
0,      47904,      47904,      160,      320, 0xe6629eca
0,      48064,      48064,      160,      320, 0x572da7cd
0,      48224,      48224,      160,      320, 0x3017972d
0,      48384,      48384,      160,      320, 0xac4e9c78
0,      48544,      48544,      160,      320, 0x112f9c45
0,      48704,      48704,      160,      320, 0x05e9a64d
0,      48864,      48864,      160,      320, 0x8f7394d4
0,      49024,      49024,      160,      320, 0xbaeea07e
0,      49184,      49184,      160,      320, 0xd757c00e
0,      49344,      49344,      160,      320, 0x8aa09783
0,      49504,      49504,      160,      320, 0x31d4ae7a
0,      49664,      49664,      160,      320, 0x221493e8
0,      49824,      49824,      160,      320, 0x92f4a3a7
0,      49984,      49984,      160,      320, 0xbd5bafd9
0,      50144,      50144,      160,      320, 0x1895b760
0,      50304,      50304,      160,      320, 0x7a4eacdd
0,      50464,      50464,      160,      320, 0xc9f7a1c3
0,      50624,      50624,      160,      320, 0xd750be06
0,      50784,      50784,      160,      320, 0x641d9a6f
0,      50944,      50944,      160,      320, 0x70d6b6ff
0,      51104,      51104,      160,      320, 0x1fd3a546
0,      51264,      51264,      160,      320, 0x72cfaabe
0,      51424,      51424,      160,      320, 0x2e61b6ce
0,      51584,      51584,      160,      320, 0x4813a091
0,      51744,      51744,      160,      320, 0xbfe7bc0f
0,      51904,      51904,      160,      320, 0x8c759c1f
0,      52064,      52064,      160,      320, 0xf4c1c952
0,      52224,      52224,      160,      320, 0x00fdaa79
0,      52384,      52384,      160,      320, 0x2ffda252
0,      52544,      52544,      160,      320, 0x841aa523
0,      52704,      52704,      160,      320, 0x8c079e5e
0,      52864,      52864,      160,      320, 0x96e9a83f
0,      53024,      53024,      160,      320, 0x5926a639
0,      53184,      53184,      160,      320, 0x02e1a07b
0,      53344,      53344,      160,      320, 0x2972a999
0,      53504,      53504,      160,      320, 0x30c89c62
0,      53664,      53664,      160,      320, 0x83f5a263
0,      53824,      53824,      160,      320, 0xa3909667
0,      53984,      53984,      160,      320, 0xd5309fd4
0,      54144,      54144,      160,      320, 0x3154a571
0,      54304,      54304,      160,      320, 0x51039a5e
0,      54464,      54464,      160,      320, 0xf167a344
0,      54624,      54624,      160,      320, 0x8e709d7d
0,      54784,      54784,      160,      320, 0x936fa0fd
0,      54944,      54944,      160,      320, 0x024b9e3c
0,      55104,      55104,      160,      320, 0x2ea1aa75
0,      55264,      55264,      160,      320, 0x33f0a2bb
0,      55424,      55424,      160,      320, 0xbf079d2d
0,      55584,      55584,      160,      320, 0x847ba2c8
0,      55744,      55744,      160,      320, 0x37e1a767
0,      55904,      55904,      160,      320, 0xb607acbb
0,      56064,      56064,      160,      320, 0x1288ac6d
0,      56224,      56224,      160,      320, 0xf60e98b3
0,      56384,      56384,      160,      320, 0xc6b5abdd
0,      56544,      56544,      160,      320, 0x7feaa710
0,      56704,      56704,      160,      320, 0x77329fcd
0,      56864,      56864,      160,      320, 0x91a6a715
0,      57024,      57024,      160,      320, 0xd0e99f24
0,      57184,      57184,      160,      320, 0x07089f61
0,      57344,      57344,      160,      320, 0x2bbda900
0,      57504,      57504,      160,      320, 0xad3da0d5
0,      57664,      57664,      160,      320, 0x997ba6d2
0,      57824,      57824,      160,      320, 0xb15b9dcb
0,      57984,      57984,      160,      320, 0x17cea82f
0,      58144,      58144,      160,      320, 0xab51a73e
0,      58304,      58304,      160,      320, 0x77a1abd6
0,      58464,      58464,      160,      320, 0x0bddacad
0,      58624,      58624,      160,      320, 0x43b3bdc4
0,      58784,      58784,      160,      320, 0xefe0a9ba
0,      58944,      58944,      160,      320, 0x8eb4bc2f
0,      59104,      59104,      160,      320, 0x39cdc190
0,      59264,      59264,      160,      320, 0x1ef3baff
0,      59424,      59424,      160,      320, 0x1a6ab7e2
0,      59584,      59584,      160,      320, 0x444ccc69
0,      59744,      59744,      160,      320, 0x05ebb598
0,      59904,      59904,      160,      320, 0x4ac5b0ad
0,      60064,      60064,      160,      320, 0x0ee5ba52
0,      60224,      60224,      160,      320, 0x501d9fa0
0,      60384,      60384,      160,      320, 0x2038a9f4
0,      60544,      60544,      160,      320, 0xa61cb8b3
0,      60704,      60704,      160,      320, 0xdd009777
0,      60864,      60864,      160,      320, 0x2a2db86d
0,      61024,      61024,      160,      320, 0xe9bab3bc
0,      61184,      61184,      160,      320, 0xf7f8a056
0,      61344,      61344,      160,      320, 0x514caf14
0,      61504,      61504,      160,      320, 0xa220b149
0,      61664,      61664,      160,      320, 0xbf7ea183
0,      61824,      61824,      160,      320, 0x1d8dc5c6
0,      61984,      61984,      160,      320, 0x9182a8ea
0,      62144,      62144,      160,      320, 0x31eba026
0,      62304,      62304,      160,      320, 0xcfbcc3df
0,      62464,      62464,      160,      320, 0x3d8cb7ae
0,      62624,      62624,      160,      320, 0xbe39aec0
0,      62784,      62784,      160,      320, 0xd236bf71
0,      62944,      62944,      160,      320, 0x9377b0b2
0,      63104,      63104,      160,      320, 0xb5e6b2df
0,      63264,      63264,      160,      320, 0xa3b9bbce
0,      63424,      63424,      160,      320, 0xa7bda251
0,      63584,      63584,      160,      320, 0xbf9ab162
0,      63744,      63744,      160,      320, 0x6928b9cb
0,      63904,      63904,      160,      320, 0xf5cca209
0,      64064,      64064,      160,      320, 0xfdf4afad
0,      64224,      64224,      160,      320, 0xe7e7c216
0,      64384,      64384,      160,      320, 0x0c5797c6
0,      64544,      64544,      160,      320, 0x66c1a9ca
0,      64704,      64704,      160,      320, 0x6b5ca48d
0,      64864,      64864,      160,      320, 0xec04968a
0,      65024,      65024,      160,      320, 0xaaada691
0,      65184,      65184,      160,      320, 0x77c3a624
0,      65344,      65344,      160,      320, 0xaed9a5d5
0,      65504,      65504,      160,      320, 0x360fac41
0,      65664,      65664,      160,      320, 0xa05ea727
0,      65824,      65824,      160,      320, 0x9f7b9f83
0,      65984,      65984,      160,      320, 0x474bc4c2
0,      66144,      66144,      160,      320, 0xb6078d3b
0,      66304,      66304,      160,      320, 0x8e15a8f9
0,      66464,      66464,      160,      320, 0x7dc7d4a8
0,      66624,      66624,      160,      320, 0x55ceab6b
0,      66784,      66784,      160,      320, 0x982cc94f
0,      66944,      66944,      160,      320, 0x6153948f
0,      67104,      67104,      160,      320, 0x5338c621
0,      67264,      67264,      160,      320, 0x2e2db6e8
0,      67424,      67424,      160,      320, 0x28e3a9c3
0,      67584,      67584,      160,      320, 0x74d7b435
0,      67744,      67744,      160,      320, 0xcf17a10c
0,      67904,      67904,      160,      320, 0xf1f9ac8c
0,      68064,      68064,      160,      320, 0x35e0b480
0,      68224,      68224,      160,      320, 0x5e60b3a4
0,      68384,      68384,      160,      320, 0x20579b26
0,      68544,      68544,      160,      320, 0x3e27b89b
0,      68704,      68704,      160,      320, 0x02e4af94
0,      68864,      68864,      160,      320, 0x6d6897f1
0,      69024,      69024,      160,      320, 0x1582b267
0,      69184,      69184,      160,      320, 0x33ba9eb3
0,      69344,      69344,      160,      320, 0xb6acad7d
0,      69504,      69504,      160,      320, 0x1969a6c2
0,      69664,      69664,      160,      320, 0x363fa350
0,      69824,      69824,      160,      320, 0xae50bf65
0,      69984,      69984,      160,      320, 0x0877a50f
0,      70144,      70144,      160,      320, 0x66e2a42f
0,      70304,      70304,      160,      320, 0x0b0abcb3
0,      70464,      70464,      160,      320, 0x23a9afaa
0,      70624,      70624,      160,      320, 0xc3729b40
0,      70784,      70784,      160,      320, 0xdd3fc7e2
0,      70944,      70944,      160,      320, 0x7e0494af
0,      71104,      71104,      160,      320, 0xcbd096fb
0,      71264,      71264,      160,      320, 0x5d71b303
0,      71424,      71424,      160,      320, 0xeedca04a
0,      71584,      71584,      160,      320, 0x2836a47d
0,      71744,      71744,      160,      320, 0x7237c2a0
0,      71904,      71904,      160,      320, 0x7c009bc0
0,      72064,      72064,      160,      320, 0xc9dcb366
0,      72224,      72224,      160,      320, 0x4993aac8
0,      72384,      72384,      160,      320, 0x05ec9954
0,      72544,      72544,      160,      320, 0xa955bd5c
0,      72704,      72704,      160,      320, 0x9018aea3
0,      72864,      72864,      160,      320, 0x780cca52
0,      73024,      73024,      160,      320, 0x9b8f95f6
0,      73184,      73184,      160,      320, 0xcd7bb178
0,      73344,      73344,      160,      320, 0xfec6b443
0,      73504,      73504,      160,      320, 0xe214abb6
0,      73664,      73664,      160,      320, 0xdcbebb38
0,      73824,      73824,      160,      320, 0xe683a30d
0,      73984,      73984,      160,      320, 0xe4cdb197
0,      74144,      74144,      160,      320, 0xa426c432
0,      74304,      74304,      160,      320, 0x761ba6cc
0,      74464,      74464,      160,      320, 0xcc9aa6aa
0,      74624,      74624,      160,      320, 0x742bd03d
0,      74784,      74784,      160,      320, 0x61d9a511
0,      74944,      74944,      160,      320, 0x3021a4dd
0,      75104,      75104,      160,      320, 0x6970bbc0
0,      75264,      75264,      160,      320, 0x76f5a037
0,      75424,      75424,      160,      320, 0x758d91f2
0,      75584,      75584,      160,      320, 0xe854a2f1
0,      75744,      75744,      160,      320, 0xf994a6f8
0,      75904,      75904,      160,      320, 0x31ebaf40
0,      76064,      76064,      160,      320, 0x24699970
0,      76224,      76224,      160,      320, 0x37dda53e
0,      76384,      76384,      160,      320, 0xa857a752
0,      76544,      76544,      160,      320, 0xc483ad1d
0,      76704,      76704,      160,      320, 0x5966add9
0,      76864,      76864,      160,      320, 0x4dbab89c
0,      77024,      77024,      160,      320, 0x2f0bb0e6
0,      77184,      77184,      160,      320, 0x913aaa88
0,      77344,      77344,      160,      320, 0x245dc1c3
0,      77504,      77504,      160,      320, 0xb085c5ad
0,      77664,      77664,      160,      320, 0x9cf1b0fa
0,      77824,      77824,      160,      320, 0x6887b543
0,      77984,      77984,      160,      320, 0xcad69feb
0,      78144,      78144,      160,      320, 0xc12a8ddb
0,      78304,      78304,      160,      320, 0x01d1bc5a
0,      78464,      78464,      160,      320, 0x3018b7e8
0,      78624,      78624,      160,      320, 0x6431b0ef
0,      78784,      78784,      160,      320, 0x3a53998e
0,      78944,      78944,      160,      320, 0x1c80a6c6
0,      79104,      79104,      160,      320, 0x6639adc5
0,      79264,      79264,      160,      320, 0x92489f9a
0,      79424,      79424,      160,      320, 0x8cafad00
0,      79584,      79584,      160,      320, 0xca0392e1
0,      79744,      79744,      160,      320, 0x30a9ae88
0,      79904,      79904,       96,      192, 0x68b76a75
